<svg xmlns="http://www.w3.org/2000/svg" xmlns:xlink="http://www.w3.org/1999/xlink" width="500" zoomAndPan="magnify" viewBox="0 0 375 374.999991" height="500" preserveAspectRatio="xMidYMid meet" version="1.0"><defs><g/><clipPath id="84d5060a3d"><path d="M 167 227 L 196 227 L 196 256 L 167 256 Z M 167 227 " clip-rule="nonzero"/></clipPath><clipPath id="579070fb55"><path d="M 164.667969 231.921875 L 182.171875 214.421875 L 208.6875 240.9375 L 191.1875 258.4375 Z M 164.667969 231.921875 " clip-rule="nonzero"/></clipPath><clipPath id="dd56728c4a"><path d="M 164.667969 231.921875 L 182.171875 214.421875 L 208.6875 240.9375 L 191.1875 258.4375 Z M 164.667969 231.921875 " clip-rule="nonzero"/></clipPath><clipPath id="230f4012fe"><path d="M 84 133 L 195 133 L 195 261 L 84 261 Z M 84 133 " clip-rule="nonzero"/></clipPath><clipPath id="bb26866b39"><path d="M 57.6875 199.394531 L 145.398438 106.859375 L 237.933594 194.570312 L 150.222656 287.105469 Z M 57.6875 199.394531 " clip-rule="nonzero"/></clipPath><clipPath id="181b5476b4"><path d="M 57.6875 199.394531 L 145.398438 106.859375 L 237.933594 194.570312 L 150.222656 287.105469 Z M 57.6875 199.394531 " clip-rule="nonzero"/></clipPath><clipPath id="13be827358"><path d="M 157 219 L 187 219 L 187 249 L 157 249 Z M 157 219 " clip-rule="nonzero"/></clipPath><clipPath id="5ef2a365d9"><path d="M 154.875 224.179688 L 172.378906 206.679688 L 198.894531 233.195312 L 181.394531 250.699219 Z M 154.875 224.179688 " clip-rule="nonzero"/></clipPath><clipPath id="fc8cd3d485"><path d="M 154.875 224.179688 L 172.378906 206.679688 L 198.894531 233.195312 L 181.394531 250.699219 Z M 154.875 224.179688 " clip-rule="nonzero"/></clipPath><clipPath id="a87750fc5f"><path d="M 98 148 L 183 148 L 183 246 L 98 246 Z M 98 148 " clip-rule="nonzero"/></clipPath><clipPath id="1b3d0c6314"><path d="M 78.441406 198.785156 L 145.566406 128.070312 L 216.28125 195.195312 L 149.15625 265.910156 Z M 78.441406 198.785156 " clip-rule="nonzero"/></clipPath><clipPath id="3823941cf0"><path d="M 78.441406 198.785156 L 145.566406 128.070312 L 216.28125 195.195312 L 149.15625 265.910156 Z M 78.441406 198.785156 " clip-rule="nonzero"/></clipPath></defs><g clip-path="url(#84d5060a3d)"><g clip-path="url(#579070fb55)"><g clip-path="url(#dd56728c4a)"><path fill="#fcc72c" d="M 191.117188 255.792969 C 191.429688 255.796875 191.734375 255.765625 192.035156 255.707031 C 192.339844 255.648438 192.632812 255.558594 192.917969 255.441406 C 193.199219 255.324219 193.472656 255.183594 193.726562 255.011719 C 193.980469 254.839844 194.21875 254.648438 194.4375 254.429688 C 194.652344 254.214844 194.847656 253.976562 195.019531 253.722656 C 195.1875 253.464844 195.332031 253.195312 195.449219 252.910156 C 195.566406 252.625 195.652344 252.332031 195.714844 252.03125 C 195.773438 251.726562 195.800781 251.421875 195.800781 251.113281 L 195.691406 228.257812 C 195.691406 228.007812 195.601562 227.796875 195.425781 227.617188 C 195.25 227.441406 195.035156 227.351562 194.785156 227.351562 L 171.929688 227.242188 C 171.621094 227.242188 171.316406 227.269531 171.011719 227.332031 C 170.710938 227.390625 170.417969 227.476562 170.132812 227.59375 C 169.847656 227.710938 169.578125 227.855469 169.320312 228.027344 C 169.0625 228.195312 168.828125 228.390625 168.609375 228.609375 C 168.394531 228.828125 168.199219 229.0625 168.027344 229.320312 C 167.859375 229.574219 167.714844 229.847656 167.597656 230.132812 C 167.480469 230.417969 167.394531 230.710938 167.335938 231.011719 C 167.277344 231.316406 167.246094 231.621094 167.25 231.929688 C 167.25 232.242188 167.28125 232.546875 167.34375 232.851562 C 167.40625 233.152344 167.496094 233.449219 167.617188 233.734375 C 167.738281 234.019531 167.882812 234.292969 168.058594 234.550781 C 168.230469 234.808594 168.425781 235.046875 168.648438 235.265625 C 168.867188 235.484375 169.105469 235.679688 169.363281 235.855469 C 169.621094 236.027344 169.894531 236.171875 170.179688 236.292969 C 170.464844 236.410156 170.761719 236.503906 171.0625 236.5625 C 171.367188 236.625 171.671875 236.65625 171.984375 236.660156 L 186.316406 236.726562 L 186.386719 251.0625 C 186.386719 251.371094 186.417969 251.679688 186.480469 251.980469 C 186.542969 252.285156 186.632812 252.582031 186.75 252.867188 C 186.871094 253.152344 187.015625 253.425781 187.191406 253.683594 C 187.363281 253.941406 187.558594 254.179688 187.78125 254.402344 C 188 254.621094 188.238281 254.816406 188.496094 254.992188 C 188.753906 255.164062 189.027344 255.308594 189.3125 255.429688 C 189.601562 255.550781 189.894531 255.640625 190.199219 255.699219 C 190.503906 255.761719 190.808594 255.792969 191.117188 255.792969 Z M 191.117188 255.792969 " fill-opacity="1" fill-rule="nonzero"/></g></g></g><g clip-path="url(#230f4012fe)"><g clip-path="url(#bb26866b39)"><g clip-path="url(#181b5476b4)"><path fill="#fcc72c" d="M 194.078125 240.847656 C 169.910156 266.347656 129.488281 267.417969 103.964844 243.226562 C 78.449219 219.042969 77.351562 178.613281 101.519531 153.117188 C 125.691406 127.617188 166.117188 126.550781 191.632812 150.734375 L 183.015625 159.832031 C 162.511719 140.398438 130.03125 141.25 110.613281 161.734375 C 91.199219 182.222656 92.085938 214.699219 112.585938 234.132812 C 133.089844 253.566406 165.566406 252.714844 184.984375 232.226562 Z M 194.078125 240.847656 " fill-opacity="1" fill-rule="nonzero"/></g></g></g><g clip-path="url(#13be827358)"><g clip-path="url(#5ef2a365d9)"><g clip-path="url(#fc8cd3d485)"><path fill="#59458e" d="M 181.324219 248.054688 C 181.636719 248.054688 181.941406 248.023438 182.242188 247.964844 C 182.546875 247.90625 182.839844 247.816406 183.125 247.703125 C 183.40625 247.585938 183.679688 247.441406 183.933594 247.269531 C 184.1875 247.101562 184.425781 246.90625 184.644531 246.6875 C 184.859375 246.472656 185.054688 246.234375 185.226562 245.980469 C 185.394531 245.722656 185.539062 245.453125 185.65625 245.167969 C 185.773438 244.882812 185.859375 244.589844 185.921875 244.289062 C 185.980469 243.984375 186.007812 243.679688 186.007812 243.371094 L 185.898438 220.515625 C 185.898438 220.269531 185.808594 220.054688 185.632812 219.878906 C 185.457031 219.699219 185.242188 219.613281 184.992188 219.613281 L 162.136719 219.5 C 161.828125 219.5 161.523438 219.53125 161.21875 219.589844 C 160.917969 219.648438 160.625 219.734375 160.339844 219.851562 C 160.054688 219.96875 159.785156 220.113281 159.527344 220.285156 C 159.269531 220.457031 159.035156 220.648438 158.816406 220.867188 C 158.601562 221.085938 158.40625 221.320312 158.234375 221.578125 C 158.066406 221.835938 157.921875 222.105469 157.804688 222.390625 C 157.6875 222.675781 157.601562 222.96875 157.542969 223.273438 C 157.484375 223.574219 157.453125 223.878906 157.457031 224.191406 C 157.457031 224.5 157.488281 224.804688 157.550781 225.109375 C 157.613281 225.410156 157.703125 225.707031 157.824219 225.992188 C 157.945312 226.277344 158.089844 226.550781 158.265625 226.808594 C 158.4375 227.066406 158.632812 227.304688 158.851562 227.523438 C 159.074219 227.742188 159.3125 227.941406 159.570312 228.113281 C 159.828125 228.285156 160.101562 228.429688 160.386719 228.550781 C 160.671875 228.671875 160.96875 228.761719 161.269531 228.824219 C 161.574219 228.882812 161.878906 228.914062 162.191406 228.917969 L 176.523438 228.984375 L 176.59375 243.320312 C 176.59375 243.628906 176.625 243.9375 176.6875 244.238281 C 176.75 244.542969 176.839844 244.839844 176.957031 245.125 C 177.078125 245.410156 177.222656 245.683594 177.398438 245.941406 C 177.570312 246.199219 177.765625 246.441406 177.988281 246.660156 C 178.207031 246.878906 178.445312 247.074219 178.703125 247.25 C 178.960938 247.421875 179.234375 247.566406 179.519531 247.6875 C 179.808594 247.808594 180.101562 247.898438 180.40625 247.960938 C 180.710938 248.019531 181.015625 248.050781 181.324219 248.054688 Z M 181.324219 248.054688 " fill-opacity="1" fill-rule="nonzero"/></g></g></g><g clip-path="url(#a87750fc5f)"><g clip-path="url(#1b3d0c6314)"><g clip-path="url(#3823941cf0)"><path fill="#59458e" d="M 182.71875 230.5625 C 164.222656 250.046875 133.308594 250.84375 113.804688 232.328125 C 94.308594 213.820312 93.492188 182.90625 111.988281 163.417969 C 130.484375 143.933594 161.398438 143.140625 180.898438 161.652344 L 174.300781 168.601562 C 158.632812 153.726562 133.796875 154.363281 118.9375 170.015625 C 104.078125 185.671875 104.734375 210.507812 120.402344 225.378906 C 136.070312 240.253906 160.910156 239.617188 175.769531 223.964844 Z M 182.71875 230.5625 " fill-opacity="1" fill-rule="nonzero"/></g></g></g><g fill="#59458e" fill-opacity="1"><g transform="translate(116.118102, 203.826002)"><g><path d="M 20.890625 -22.03125 L 29.1875 -22.03125 L 25 -2.09375 C 24.6875 -0.5625 24.171875 0.847656 23.453125 2.140625 C 22.734375 3.441406 21.734375 4.570312 20.453125 5.53125 C 19.179688 6.488281 17.578125 7.238281 15.640625 7.78125 C 13.710938 8.332031 11.367188 8.609375 8.609375 8.609375 C 8.097656 8.609375 7.484375 8.597656 6.765625 8.578125 C 6.046875 8.554688 5.3125 8.535156 4.5625 8.515625 C 3.8125 8.503906 3.09375 8.484375 2.40625 8.453125 C 1.726562 8.421875 1.179688 8.382812 0.765625 8.34375 L 1.734375 4.65625 C 2.828125 4.832031 3.945312 4.925781 5.09375 4.9375 C 6.238281 4.957031 7.222656 4.96875 8.046875 4.96875 C 9.066406 4.96875 9.925781 4.875 10.625 4.6875 C 11.320312 4.5 11.898438 4.195312 12.359375 3.78125 C 12.828125 3.375 13.207031 2.828125 13.5 2.140625 C 13.789062 1.460938 14.019531 0.628906 14.1875 -0.359375 L 14.796875 -3.6875 L 14.4375 -3.6875 C 14.238281 -3.382812 13.941406 -3.019531 13.546875 -2.59375 C 13.148438 -2.164062 12.644531 -1.753906 12.03125 -1.359375 C 11.414062 -0.960938 10.691406 -0.632812 9.859375 -0.375 C 9.023438 -0.125 8.078125 0 7.015625 0 C 5.816406 0 4.800781 -0.175781 3.96875 -0.53125 C 3.132812 -0.894531 2.457031 -1.390625 1.9375 -2.015625 C 1.425781 -2.648438 1.050781 -3.398438 0.8125 -4.265625 C 0.582031 -5.140625 0.46875 -6.09375 0.46875 -7.125 C 0.46875 -7.5625 0.5 -8.238281 0.5625 -9.15625 C 0.632812 -10.082031 0.796875 -11.125 1.046875 -12.28125 C 1.304688 -13.445312 1.679688 -14.632812 2.171875 -15.84375 C 2.671875 -17.0625 3.335938 -18.164062 4.171875 -19.15625 C 5.003906 -20.144531 6.046875 -20.960938 7.296875 -21.609375 C 8.546875 -22.265625 10.054688 -22.59375 11.828125 -22.59375 C 12.378906 -22.59375 12.976562 -22.539062 13.625 -22.4375 C 14.269531 -22.332031 14.898438 -22.140625 15.515625 -21.859375 C 16.128906 -21.585938 16.675781 -21.195312 17.15625 -20.6875 C 17.632812 -20.175781 18.007812 -19.507812 18.28125 -18.6875 L 18.59375 -18.6875 Z M 15.15625 -17.5625 C 14.34375 -17.5625 13.660156 -17.125 13.109375 -16.25 C 12.566406 -15.382812 12.125 -14.367188 11.78125 -13.203125 C 11.4375 -12.046875 11.1875 -10.894531 11.03125 -9.75 C 10.882812 -8.613281 10.8125 -7.769531 10.8125 -7.21875 C 10.8125 -6.539062 10.921875 -5.96875 11.140625 -5.5 C 11.359375 -5.039062 11.757812 -4.8125 12.34375 -4.8125 C 12.6875 -4.8125 13.019531 -4.894531 13.34375 -5.0625 C 13.664062 -5.238281 13.972656 -5.4375 14.265625 -5.65625 C 14.554688 -5.882812 14.8125 -6.113281 15.03125 -6.34375 C 15.25 -6.582031 15.410156 -6.773438 15.515625 -6.921875 L 17.421875 -15.875 C 17.140625 -16.25 16.816406 -16.625 16.453125 -17 C 16.097656 -17.375 15.664062 -17.5625 15.15625 -17.5625 Z M 15.15625 -17.5625 "/></g></g></g><g fill="#59458e" fill-opacity="1"><g transform="translate(145.719682, 203.826002)"><g><path d="M 6.765625 -34.421875 L 17.203125 -34.421875 L 10.65625 -10.296875 L 3.375 -10.296875 Z M 1.078125 -3.328125 C 1.078125 -4.046875 1.226562 -4.6875 1.53125 -5.25 C 1.84375 -5.8125 2.242188 -6.28125 2.734375 -6.65625 C 3.234375 -7.03125 3.796875 -7.3125 4.421875 -7.5 C 5.054688 -7.6875 5.71875 -7.78125 6.40625 -7.78125 C 7.664062 -7.78125 8.726562 -7.472656 9.59375 -6.859375 C 10.46875 -6.242188 10.90625 -5.304688 10.90625 -4.046875 C 10.90625 -3.328125 10.757812 -2.6875 10.46875 -2.125 C 10.175781 -1.5625 9.78125 -1.09375 9.28125 -0.71875 C 8.789062 -0.34375 8.226562 -0.0625 7.59375 0.125 C 6.96875 0.3125 6.296875 0.40625 5.578125 0.40625 C 4.316406 0.40625 3.25 0.0976562 2.375 -0.515625 C 1.507812 -1.128906 1.078125 -2.066406 1.078125 -3.328125 Z M 1.078125 -3.328125 "/></g></g></g><g fill="#59458e" fill-opacity="1"><g transform="translate(160.776533, 203.826002)"><g><path d="M 20.890625 -22.03125 L 29.1875 -22.03125 L 25 -2.09375 C 24.6875 -0.5625 24.171875 0.847656 23.453125 2.140625 C 22.734375 3.441406 21.734375 4.570312 20.453125 5.53125 C 19.179688 6.488281 17.578125 7.238281 15.640625 7.78125 C 13.710938 8.332031 11.367188 8.609375 8.609375 8.609375 C 8.097656 8.609375 7.484375 8.597656 6.765625 8.578125 C 6.046875 8.554688 5.3125 8.535156 4.5625 8.515625 C 3.8125 8.503906 3.09375 8.484375 2.40625 8.453125 C 1.726562 8.421875 1.179688 8.382812 0.765625 8.34375 L 1.734375 4.65625 C 2.828125 4.832031 3.945312 4.925781 5.09375 4.9375 C 6.238281 4.957031 7.222656 4.96875 8.046875 4.96875 C 9.066406 4.96875 9.925781 4.875 10.625 4.6875 C 11.320312 4.5 11.898438 4.195312 12.359375 3.78125 C 12.828125 3.375 13.207031 2.828125 13.5 2.140625 C 13.789062 1.460938 14.019531 0.628906 14.1875 -0.359375 L 14.796875 -3.6875 L 14.4375 -3.6875 C 14.238281 -3.382812 13.941406 -3.019531 13.546875 -2.59375 C 13.148438 -2.164062 12.644531 -1.753906 12.03125 -1.359375 C 11.414062 -0.960938 10.691406 -0.632812 9.859375 -0.375 C 9.023438 -0.125 8.078125 0 7.015625 0 C 5.816406 0 4.800781 -0.175781 3.96875 -0.53125 C 3.132812 -0.894531 2.457031 -1.390625 1.9375 -2.015625 C 1.425781 -2.648438 1.050781 -3.398438 0.8125 -4.265625 C 0.582031 -5.140625 0.46875 -6.09375 0.46875 -7.125 C 0.46875 -7.5625 0.5 -8.238281 0.5625 -9.15625 C 0.632812 -10.082031 0.796875 -11.125 1.046875 -12.28125 C 1.304688 -13.445312 1.679688 -14.632812 2.171875 -15.84375 C 2.671875 -17.0625 3.335938 -18.164062 4.171875 -19.15625 C 5.003906 -20.144531 6.046875 -20.960938 7.296875 -21.609375 C 8.546875 -22.265625 10.054688 -22.59375 11.828125 -22.59375 C 12.378906 -22.59375 12.976562 -22.539062 13.625 -22.4375 C 14.269531 -22.332031 14.898438 -22.140625 15.515625 -21.859375 C 16.128906 -21.585938 16.675781 -21.195312 17.15625 -20.6875 C 17.632812 -20.175781 18.007812 -19.507812 18.28125 -18.6875 L 18.59375 -18.6875 Z M 15.15625 -17.5625 C 14.34375 -17.5625 13.660156 -17.125 13.109375 -16.25 C 12.566406 -15.382812 12.125 -14.367188 11.78125 -13.203125 C 11.4375 -12.046875 11.1875 -10.894531 11.03125 -9.75 C 10.882812 -8.613281 10.8125 -7.769531 10.8125 -7.21875 C 10.8125 -6.539062 10.921875 -5.96875 11.140625 -5.5 C 11.359375 -5.039062 11.757812 -4.8125 12.34375 -4.8125 C 12.6875 -4.8125 13.019531 -4.894531 13.34375 -5.0625 C 13.664062 -5.238281 13.972656 -5.4375 14.265625 -5.65625 C 14.554688 -5.882812 14.8125 -6.113281 15.03125 -6.34375 C 15.25 -6.582031 15.410156 -6.773438 15.515625 -6.921875 L 17.421875 -15.875 C 17.140625 -16.25 16.816406 -16.625 16.453125 -17 C 16.097656 -17.375 15.664062 -17.5625 15.15625 -17.5625 Z M 15.15625 -17.5625 "/></g></g></g><g fill="#59458e" fill-opacity="1"><g transform="translate(190.378112, 203.826002)"><g><path d="M 12.65625 -12.703125 L 24.578125 -22.03125 L 31.34375 -22.03125 L 21.15625 -13.671875 L 28.78125 0 L 17.3125 0 L 12.09375 -10.296875 L 9.9375 0 L -0.515625 0 L 6.765625 -34.421875 L 17.265625 -34.421875 Z M 12.65625 -12.703125 "/></g></g></g><g fill="#59458e" fill-opacity="1"><g transform="translate(221.055181, 203.826002)"><g><path d="M 11.171875 -10.296875 C 11.023438 -9.546875 10.925781 -8.828125 10.875 -8.140625 C 10.832031 -7.460938 10.8125 -6.847656 10.8125 -6.296875 C 10.8125 -5.992188 10.828125 -5.65625 10.859375 -5.28125 C 10.890625 -4.90625 10.960938 -4.550781 11.078125 -4.21875 C 11.203125 -3.894531 11.375 -3.625 11.59375 -3.40625 C 11.820312 -3.1875 12.140625 -3.078125 12.546875 -3.078125 C 12.859375 -3.078125 13.207031 -3.175781 13.59375 -3.375 C 13.988281 -3.582031 14.378906 -3.875 14.765625 -4.25 C 15.160156 -4.625 15.535156 -5.082031 15.890625 -5.625 C 16.253906 -6.175781 16.539062 -6.796875 16.75 -7.484375 L 25.140625 -7.484375 L 23.8125 -2 C 23.132812 -1.550781 22.347656 -1.171875 21.453125 -0.859375 C 20.566406 -0.554688 19.628906 -0.3125 18.640625 -0.125 C 17.648438 0.0625 16.640625 0.195312 15.609375 0.28125 C 14.585938 0.363281 13.617188 0.40625 12.703125 0.40625 C 10.992188 0.40625 9.40625 0.253906 7.9375 -0.046875 C 6.46875 -0.359375 5.1875 -0.890625 4.09375 -1.640625 C 3 -2.390625 2.132812 -3.382812 1.5 -4.625 C 0.875 -5.875 0.5625 -7.421875 0.5625 -9.265625 C 0.5625 -10.941406 0.828125 -12.582031 1.359375 -14.1875 C 1.890625 -15.789062 2.773438 -17.210938 4.015625 -18.453125 C 5.265625 -19.703125 6.9375 -20.703125 9.03125 -21.453125 C 11.132812 -22.210938 13.757812 -22.59375 16.90625 -22.59375 C 20.320312 -22.59375 22.890625 -22.0625 24.609375 -21 C 26.335938 -19.9375 27.203125 -18.28125 27.203125 -16.03125 C 27.203125 -15.113281 27.0625 -14.113281 26.78125 -13.03125 C 26.507812 -11.957031 26.101562 -11.046875 25.5625 -10.296875 Z M 17.984375 -16.390625 C 17.984375 -17.453125 17.8125 -18.171875 17.46875 -18.546875 C 17.125 -18.921875 16.710938 -19.109375 16.234375 -19.109375 C 15.691406 -19.109375 15.1875 -18.925781 14.71875 -18.5625 C 14.257812 -18.207031 13.84375 -17.726562 13.46875 -17.125 C 13.09375 -16.53125 12.75 -15.847656 12.4375 -15.078125 C 12.132812 -14.316406 11.878906 -13.507812 11.671875 -12.65625 L 17.515625 -12.65625 C 17.585938 -13.0625 17.65625 -13.488281 17.71875 -13.9375 C 17.789062 -14.3125 17.851562 -14.71875 17.90625 -15.15625 C 17.957031 -15.601562 17.984375 -16.015625 17.984375 -16.390625 Z M 17.984375 -16.390625 "/></g></g></g><g fill="#59458e" fill-opacity="1"><g transform="translate(249.069135, 203.826002)"><g><path d="M 4.15625 -22.03125 L 12.5 -22.03125 L 13.265625 -18.1875 L 13.625 -18.1875 C 14.40625 -19.414062 15.410156 -20.457031 16.640625 -21.3125 C 17.867188 -22.164062 19.492188 -22.59375 21.515625 -22.59375 C 21.648438 -22.59375 21.863281 -22.582031 22.15625 -22.5625 C 22.445312 -22.539062 22.769531 -22.488281 23.125 -22.40625 C 23.476562 -22.320312 23.851562 -22.203125 24.25 -22.046875 C 24.644531 -21.890625 25.03125 -21.675781 25.40625 -21.40625 L 23.15625 -10.859375 L 17.5625 -10.859375 C 17.5 -12.972656 17.3125 -14.445312 17 -15.28125 C 16.695312 -16.125 16.203125 -16.546875 15.515625 -16.546875 C 15.171875 -16.546875 14.800781 -16.46875 14.40625 -16.3125 C 14.019531 -16.15625 13.625 -15.820312 13.21875 -15.3125 L 9.9375 0 L -0.515625 0 Z M 4.15625 -22.03125 "/></g></g></g></svg>