<svg xmlns="http://www.w3.org/2000/svg" xmlns:xlink="http://www.w3.org/1999/xlink" width="100" zoomAndPan="magnify" viewBox="0 0 37.5 37.499999" height="65" preserveAspectRatio="xMidYMid meet" version="1.0"><defs><g/><clipPath id="7c8266e3b0"><path d="M 15 24 L 22 24 L 22 30 L 15 30 Z M 15 24 " clip-rule="nonzero"/></clipPath><clipPath id="767fd26734"><path d="M 15.453125 25.308594 L 18.636719 22.125 L 23.410156 26.898438 L 20.226562 30.082031 Z M 15.453125 25.308594 " clip-rule="nonzero"/></clipPath><clipPath id="d3bf58646e"><path d="M 15.453125 25.308594 L 18.636719 22.125 L 23.410156 26.898438 L 20.226562 30.082031 Z M 15.453125 25.308594 " clip-rule="nonzero"/></clipPath><clipPath id="2800829d57"><path d="M 0 6 L 22 6 L 22 31 L 0 31 Z M 0 6 " clip-rule="nonzero"/></clipPath><clipPath id="db1910f585"><path d="M -4.636719 19.199219 L 11.871094 1.78125 L 29.292969 18.292969 L 12.78125 35.710938 Z M -4.636719 19.199219 " clip-rule="nonzero"/></clipPath><clipPath id="bd0db0a899"><path d="M -4.636719 19.199219 L 11.871094 1.78125 L 29.292969 18.292969 L 12.78125 35.710938 Z M -4.636719 19.199219 " clip-rule="nonzero"/></clipPath><clipPath id="9afe1b5573"><path d="M 14 23 L 20 23 L 20 29 L 14 29 Z M 14 23 " clip-rule="nonzero"/></clipPath><clipPath id="5fb9c692de"><path d="M 13.617188 23.855469 L 16.796875 20.671875 L 21.570312 25.445312 L 18.386719 28.628906 Z M 13.617188 23.855469 " clip-rule="nonzero"/></clipPath><clipPath id="71b280468a"><path d="M 13.617188 23.855469 L 16.796875 20.671875 L 21.570312 25.445312 L 18.386719 28.628906 Z M 13.617188 23.855469 " clip-rule="nonzero"/></clipPath><clipPath id="f77598d49a"><path d="M 2 9 L 19 9 L 19 28 L 2 28 Z M 2 9 " clip-rule="nonzero"/></clipPath><clipPath id="eaf0ee3cf6"><path d="M -0.738281 19.082031 L 11.652344 6.027344 L 24.707031 18.421875 L 12.316406 31.476562 Z M -0.738281 19.082031 " clip-rule="nonzero"/></clipPath><clipPath id="98b8be563a"><path d="M -0.738281 19.082031 L 11.652344 6.027344 L 24.707031 18.421875 L 12.316406 31.476562 Z M -0.738281 19.082031 " clip-rule="nonzero"/></clipPath></defs><g clip-path="url(#7c8266e3b0)"><g clip-path="url(#767fd26734)"><g clip-path="url(#d3bf58646e)"><path fill="#fcc72c" d="M 20.21875 29.605469 C 20.453125 29.605469 20.652344 29.519531 20.820312 29.355469 C 20.984375 29.1875 21.070312 28.988281 21.070312 28.753906 L 21.070312 24.617188 C 21.070312 24.507812 21.015625 24.453125 20.90625 24.453125 L 16.769531 24.453125 C 16.535156 24.453125 16.335938 24.539062 16.167969 24.703125 C 16.003906 24.871094 15.921875 25.070312 15.921875 25.308594 C 15.921875 25.542969 16.003906 25.742188 16.171875 25.910156 C 16.335938 26.074219 16.539062 26.15625 16.773438 26.15625 L 19.367188 26.15625 L 19.367188 28.75 C 19.367188 28.988281 19.449219 29.1875 19.617188 29.355469 C 19.78125 29.519531 19.984375 29.605469 20.21875 29.605469 Z M 20.21875 29.605469 " fill-opacity="1" fill-rule="nonzero"/></g></g></g><g clip-path="url(#2800829d57)"><g clip-path="url(#db1910f585)"><g clip-path="url(#bd0db0a899)"><path fill="#fcc72c" d="M 21.035156 27.003906 C 16.488281 31.804688 8.878906 32.003906 4.074219 27.453125 C -0.730469 22.898438 -0.9375 15.289062 3.613281 10.488281 C 8.164062 5.691406 15.773438 5.488281 20.574219 10.042969 L 18.953125 11.753906 C 15.09375 8.09375 8.980469 8.253906 5.324219 12.113281 C 1.671875 15.96875 1.835938 22.082031 5.695312 25.738281 C 9.554688 29.398438 15.667969 29.238281 19.324219 25.382812 Z M 21.035156 27.003906 " fill-opacity="1" fill-rule="nonzero"/></g></g></g><g clip-path="url(#9afe1b5573)"><g clip-path="url(#5fb9c692de)"><g clip-path="url(#71b280468a)"><path fill="#59458e" d="M 18.378906 28.148438 C 18.613281 28.148438 18.816406 28.066406 18.980469 27.902344 C 19.148438 27.734375 19.230469 27.535156 19.230469 27.300781 L 19.230469 23.164062 C 19.230469 23.054688 19.175781 23 19.066406 23 L 14.933594 23 C 14.695312 23 14.496094 23.085938 14.332031 23.25 C 14.164062 23.417969 14.082031 23.617188 14.082031 23.851562 C 14.082031 24.089844 14.164062 24.289062 14.332031 24.453125 C 14.496094 24.621094 14.699219 24.703125 14.933594 24.703125 L 17.527344 24.703125 L 17.527344 27.296875 C 17.527344 27.535156 17.609375 27.734375 17.777344 27.902344 C 17.941406 28.066406 18.144531 28.152344 18.378906 28.148438 Z M 18.378906 28.148438 " fill-opacity="1" fill-rule="nonzero"/></g></g></g><g clip-path="url(#f77598d49a)"><g clip-path="url(#eaf0ee3cf6)"><g clip-path="url(#98b8be563a)"><path fill="#59458e" d="M 18.511719 24.949219 C 15.097656 28.546875 9.390625 28.695312 5.789062 25.277344 C 2.191406 21.859375 2.039062 16.152344 5.453125 12.554688 C 8.867188 8.957031 14.578125 8.8125 18.175781 12.226562 L 16.957031 13.511719 C 14.066406 10.765625 9.480469 10.882812 6.738281 13.773438 C 3.992188 16.664062 4.113281 21.246094 7.007812 23.992188 C 9.898438 26.738281 14.484375 26.621094 17.230469 23.730469 Z M 18.511719 24.949219 " fill-opacity="1" fill-rule="nonzero"/></g></g></g><g fill="#59458e" fill-opacity="1"><g transform="translate(6.33485, 20.033872)"><g><path d="M 3.921875 -4.140625 L 5.484375 -4.140625 L 4.703125 -0.390625 C 4.640625 -0.109375 4.539062 0.148438 4.40625 0.390625 C 4.269531 0.640625 4.082031 0.851562 3.84375 1.03125 C 3.601562 1.21875 3.300781 1.359375 2.9375 1.453125 C 2.570312 1.554688 2.128906 1.609375 1.609375 1.609375 C 1.515625 1.609375 1.398438 1.609375 1.265625 1.609375 C 1.128906 1.609375 0.988281 1.601562 0.84375 1.59375 C 0.707031 1.59375 0.578125 1.585938 0.453125 1.578125 C 0.328125 1.578125 0.222656 1.570312 0.140625 1.5625 L 0.328125 0.875 C 0.535156 0.90625 0.742188 0.921875 0.953125 0.921875 C 1.171875 0.929688 1.359375 0.9375 1.515625 0.9375 C 1.703125 0.9375 1.859375 0.914062 1.984375 0.875 C 2.117188 0.84375 2.226562 0.785156 2.3125 0.703125 C 2.40625 0.628906 2.476562 0.53125 2.53125 0.40625 C 2.59375 0.28125 2.640625 0.125 2.671875 -0.0625 L 2.78125 -0.6875 L 2.71875 -0.6875 C 2.675781 -0.632812 2.617188 -0.566406 2.546875 -0.484375 C 2.472656 -0.398438 2.378906 -0.320312 2.265625 -0.25 C 2.148438 -0.175781 2.007812 -0.113281 1.84375 -0.0625 C 1.6875 -0.0195312 1.507812 0 1.3125 0 C 1.09375 0 0.90625 -0.03125 0.75 -0.09375 C 0.59375 -0.164062 0.460938 -0.257812 0.359375 -0.375 C 0.265625 -0.5 0.195312 -0.640625 0.15625 -0.796875 C 0.113281 -0.960938 0.09375 -1.144531 0.09375 -1.34375 C 0.09375 -1.425781 0.0976562 -1.550781 0.109375 -1.71875 C 0.117188 -1.894531 0.144531 -2.09375 0.1875 -2.3125 C 0.238281 -2.53125 0.3125 -2.753906 0.40625 -2.984375 C 0.5 -3.210938 0.625 -3.414062 0.78125 -3.59375 C 0.9375 -3.78125 1.128906 -3.9375 1.359375 -4.0625 C 1.597656 -4.1875 1.882812 -4.25 2.21875 -4.25 C 2.320312 -4.25 2.4375 -4.238281 2.5625 -4.21875 C 2.6875 -4.195312 2.804688 -4.160156 2.921875 -4.109375 C 3.035156 -4.054688 3.132812 -3.984375 3.21875 -3.890625 C 3.3125 -3.796875 3.382812 -3.671875 3.4375 -3.515625 L 3.5 -3.515625 Z M 2.84375 -3.296875 C 2.695312 -3.296875 2.570312 -3.210938 2.46875 -3.046875 C 2.363281 -2.890625 2.28125 -2.703125 2.21875 -2.484375 C 2.15625 -2.265625 2.109375 -2.046875 2.078125 -1.828125 C 2.046875 -1.617188 2.03125 -1.460938 2.03125 -1.359375 C 2.03125 -1.234375 2.050781 -1.125 2.09375 -1.03125 C 2.132812 -0.945312 2.207031 -0.90625 2.3125 -0.90625 C 2.382812 -0.90625 2.445312 -0.921875 2.5 -0.953125 C 2.5625 -0.984375 2.617188 -1.019531 2.671875 -1.0625 C 2.734375 -1.101562 2.785156 -1.144531 2.828125 -1.1875 C 2.867188 -1.238281 2.898438 -1.273438 2.921875 -1.296875 L 3.265625 -2.984375 C 3.222656 -3.054688 3.164062 -3.125 3.09375 -3.1875 C 3.03125 -3.257812 2.945312 -3.296875 2.84375 -3.296875 Z M 2.84375 -3.296875 "/></g></g></g><g fill="#59458e" fill-opacity="1"><g transform="translate(11.893798, 20.033872)"><g><path d="M 1.265625 -6.46875 L 3.234375 -6.46875 L 2 -1.9375 L 0.640625 -1.9375 Z M 0.203125 -0.625 C 0.203125 -0.757812 0.226562 -0.878906 0.28125 -0.984375 C 0.34375 -1.085938 0.421875 -1.175781 0.515625 -1.25 C 0.609375 -1.320312 0.710938 -1.375 0.828125 -1.40625 C 0.953125 -1.445312 1.078125 -1.46875 1.203125 -1.46875 C 1.441406 -1.46875 1.640625 -1.40625 1.796875 -1.28125 C 1.960938 -1.164062 2.046875 -0.992188 2.046875 -0.765625 C 2.046875 -0.628906 2.019531 -0.503906 1.96875 -0.390625 C 1.914062 -0.285156 1.84375 -0.195312 1.75 -0.125 C 1.65625 -0.0625 1.546875 -0.015625 1.421875 0.015625 C 1.304688 0.0546875 1.179688 0.078125 1.046875 0.078125 C 0.804688 0.078125 0.601562 0.0195312 0.4375 -0.09375 C 0.28125 -0.207031 0.203125 -0.382812 0.203125 -0.625 Z M 0.203125 -0.625 "/></g></g></g><g fill="#59458e" fill-opacity="1"><g transform="translate(14.721358, 20.033872)"><g><path d="M 3.921875 -4.140625 L 5.484375 -4.140625 L 4.703125 -0.390625 C 4.640625 -0.109375 4.539062 0.148438 4.40625 0.390625 C 4.269531 0.640625 4.082031 0.851562 3.84375 1.03125 C 3.601562 1.21875 3.300781 1.359375 2.9375 1.453125 C 2.570312 1.554688 2.128906 1.609375 1.609375 1.609375 C 1.515625 1.609375 1.398438 1.609375 1.265625 1.609375 C 1.128906 1.609375 0.988281 1.601562 0.84375 1.59375 C 0.707031 1.59375 0.578125 1.585938 0.453125 1.578125 C 0.328125 1.578125 0.222656 1.570312 0.140625 1.5625 L 0.328125 0.875 C 0.535156 0.90625 0.742188 0.921875 0.953125 0.921875 C 1.171875 0.929688 1.359375 0.9375 1.515625 0.9375 C 1.703125 0.9375 1.859375 0.914062 1.984375 0.875 C 2.117188 0.84375 2.226562 0.785156 2.3125 0.703125 C 2.40625 0.628906 2.476562 0.53125 2.53125 0.40625 C 2.59375 0.28125 2.640625 0.125 2.671875 -0.0625 L 2.78125 -0.6875 L 2.71875 -0.6875 C 2.675781 -0.632812 2.617188 -0.566406 2.546875 -0.484375 C 2.472656 -0.398438 2.378906 -0.320312 2.265625 -0.25 C 2.148438 -0.175781 2.007812 -0.113281 1.84375 -0.0625 C 1.6875 -0.0195312 1.507812 0 1.3125 0 C 1.09375 0 0.90625 -0.03125 0.75 -0.09375 C 0.59375 -0.164062 0.460938 -0.257812 0.359375 -0.375 C 0.265625 -0.5 0.195312 -0.640625 0.15625 -0.796875 C 0.113281 -0.960938 0.09375 -1.144531 0.09375 -1.34375 C 0.09375 -1.425781 0.0976562 -1.550781 0.109375 -1.71875 C 0.117188 -1.894531 0.144531 -2.09375 0.1875 -2.3125 C 0.238281 -2.53125 0.3125 -2.753906 0.40625 -2.984375 C 0.5 -3.210938 0.625 -3.414062 0.78125 -3.59375 C 0.9375 -3.78125 1.128906 -3.9375 1.359375 -4.0625 C 1.597656 -4.1875 1.882812 -4.25 2.21875 -4.25 C 2.320312 -4.25 2.4375 -4.238281 2.5625 -4.21875 C 2.6875 -4.195312 2.804688 -4.160156 2.921875 -4.109375 C 3.035156 -4.054688 3.132812 -3.984375 3.21875 -3.890625 C 3.3125 -3.796875 3.382812 -3.671875 3.4375 -3.515625 L 3.5 -3.515625 Z M 2.84375 -3.296875 C 2.695312 -3.296875 2.570312 -3.210938 2.46875 -3.046875 C 2.363281 -2.890625 2.28125 -2.703125 2.21875 -2.484375 C 2.15625 -2.265625 2.109375 -2.046875 2.078125 -1.828125 C 2.046875 -1.617188 2.03125 -1.460938 2.03125 -1.359375 C 2.03125 -1.234375 2.050781 -1.125 2.09375 -1.03125 C 2.132812 -0.945312 2.207031 -0.90625 2.3125 -0.90625 C 2.382812 -0.90625 2.445312 -0.921875 2.5 -0.953125 C 2.5625 -0.984375 2.617188 -1.019531 2.671875 -1.0625 C 2.734375 -1.101562 2.785156 -1.144531 2.828125 -1.1875 C 2.867188 -1.238281 2.898438 -1.273438 2.921875 -1.296875 L 3.265625 -2.984375 C 3.222656 -3.054688 3.164062 -3.125 3.09375 -3.1875 C 3.03125 -3.257812 2.945312 -3.296875 2.84375 -3.296875 Z M 2.84375 -3.296875 "/></g></g></g><g fill="#59458e" fill-opacity="1"><g transform="translate(20.280306, 20.033872)"><g><path d="M 2.375 -2.390625 L 4.625 -4.140625 L 5.890625 -4.140625 L 3.96875 -2.5625 L 5.40625 0 L 3.25 0 L 2.265625 -1.9375 L 1.875 0 L -0.09375 0 L 1.265625 -6.46875 L 3.25 -6.46875 Z M 2.375 -2.390625 "/></g></g></g><g fill="#59458e" fill-opacity="1"><g transform="translate(26.041223, 20.033872)"><g><path d="M 2.09375 -1.9375 C 2.070312 -1.789062 2.054688 -1.65625 2.046875 -1.53125 C 2.035156 -1.40625 2.03125 -1.289062 2.03125 -1.1875 C 2.03125 -1.125 2.03125 -1.054688 2.03125 -0.984375 C 2.039062 -0.921875 2.054688 -0.859375 2.078125 -0.796875 C 2.109375 -0.734375 2.144531 -0.679688 2.1875 -0.640625 C 2.226562 -0.597656 2.285156 -0.578125 2.359375 -0.578125 C 2.410156 -0.578125 2.472656 -0.59375 2.546875 -0.625 C 2.628906 -0.664062 2.707031 -0.722656 2.78125 -0.796875 C 2.851562 -0.867188 2.921875 -0.957031 2.984375 -1.0625 C 3.054688 -1.164062 3.109375 -1.28125 3.140625 -1.40625 L 4.71875 -1.40625 L 4.46875 -0.375 C 4.34375 -0.289062 4.195312 -0.21875 4.03125 -0.15625 C 3.863281 -0.101562 3.6875 -0.0546875 3.5 -0.015625 C 3.3125 0.015625 3.117188 0.0351562 2.921875 0.046875 C 2.734375 0.0664062 2.554688 0.078125 2.390625 0.078125 C 2.066406 0.078125 1.765625 0.0507812 1.484375 0 C 1.210938 -0.0625 0.972656 -0.160156 0.765625 -0.296875 C 0.566406 -0.441406 0.40625 -0.628906 0.28125 -0.859375 C 0.164062 -1.097656 0.109375 -1.390625 0.109375 -1.734375 C 0.109375 -2.054688 0.15625 -2.367188 0.25 -2.671875 C 0.351562 -2.972656 0.519531 -3.238281 0.75 -3.46875 C 0.988281 -3.707031 1.304688 -3.894531 1.703125 -4.03125 C 2.097656 -4.175781 2.585938 -4.25 3.171875 -4.25 C 3.816406 -4.25 4.300781 -4.144531 4.625 -3.9375 C 4.945312 -3.738281 5.109375 -3.429688 5.109375 -3.015625 C 5.109375 -2.835938 5.082031 -2.644531 5.03125 -2.4375 C 4.976562 -2.238281 4.898438 -2.070312 4.796875 -1.9375 Z M 3.375 -3.078125 C 3.375 -3.273438 3.34375 -3.410156 3.28125 -3.484375 C 3.21875 -3.554688 3.140625 -3.59375 3.046875 -3.59375 C 2.941406 -3.59375 2.847656 -3.554688 2.765625 -3.484375 C 2.679688 -3.421875 2.601562 -3.332031 2.53125 -3.21875 C 2.457031 -3.101562 2.390625 -2.972656 2.328125 -2.828125 C 2.273438 -2.691406 2.226562 -2.539062 2.1875 -2.375 L 3.296875 -2.375 C 3.304688 -2.457031 3.316406 -2.539062 3.328125 -2.625 C 3.335938 -2.6875 3.347656 -2.757812 3.359375 -2.84375 C 3.367188 -2.925781 3.375 -3.003906 3.375 -3.078125 Z M 3.375 -3.078125 "/></g></g></g><g fill="#59458e" fill-opacity="1"><g transform="translate(31.302027, 20.033872)"><g><path d="M 0.78125 -4.140625 L 2.34375 -4.140625 L 2.5 -3.421875 L 2.5625 -3.421875 C 2.707031 -3.648438 2.894531 -3.84375 3.125 -4 C 3.351562 -4.164062 3.660156 -4.25 4.046875 -4.25 C 4.066406 -4.25 4.101562 -4.242188 4.15625 -4.234375 C 4.21875 -4.234375 4.28125 -4.222656 4.34375 -4.203125 C 4.414062 -4.191406 4.488281 -4.171875 4.5625 -4.140625 C 4.632812 -4.109375 4.707031 -4.066406 4.78125 -4.015625 L 4.34375 -2.046875 L 3.296875 -2.046875 C 3.285156 -2.441406 3.25 -2.71875 3.1875 -2.875 C 3.132812 -3.03125 3.046875 -3.109375 2.921875 -3.109375 C 2.847656 -3.109375 2.773438 -3.09375 2.703125 -3.0625 C 2.628906 -3.03125 2.554688 -2.96875 2.484375 -2.875 L 1.875 0 L -0.09375 0 Z M 0.78125 -4.140625 "/></g></g></g></svg>